{
  "accessors": [
    {
      "bufferView": 2,
      "componentType": 5126,
      "count": 8086,
      "max": [
        34.065391540527344,
        15.446320533752441,
        2.8956000804901123
      ],
      "min": [
        -27.199411392211914,
        -29.359277725219727,
        -0.0
      ],
      "type": "VEC3"
    },
    {
      "bufferView": 2,
      "byteOffset": 97032,
      "componentType": 5126,
      "count": 8086,
      "max": [
        1.0,
        1.0,
        1.0
      ],
      "min": [
        -1.0,
        -1.0,
        -1.0
      ],
      "type": "VEC3"
    },
    {
      "bufferView": 1,
      "componentType": 5126,
      "count": 8086,
      "max": [
        0.9963759779930115,
        0.995963990688324
      ],
      "min": [
        0.0036009999457746744,
        0.0036009999457746744
      ],
      "type": "VEC2"
    },
    {
      "bufferView": 0,
      "componentType": 5125,
      "count": 18504,
      "type": "SCALAR"
    },
    {
      "bufferView": 2,
      "byteOffset": 194064,
      "componentType": 5126,
      "count": 7671,
      "max": [
        33.30339050292969,
        14.684324264526367,
        3.183013916015625
      ],
      "min": [
        -26.437408447265625,
        -28.59727668762207,
        0.0
      ],
      "type": "VEC3"
    },
    {
      "bufferView": 2,
      "byteOffset": 286116,
      "componentType": 5126,
      "count": 7671,
      "max": [
        1.0,
        1.0,
        1.0
      ],
      "min": [
        -1.0,
        -1.0,
        -1.0
      ],
      "type": "VEC3"
    },
    {
      "bufferView": 1,
      "byteOffset": 64688,
      "componentType": 5126,
      "count": 7671,
      "max": [
        0.9963759779930115,
        0.995959997177124
      ],
      "min": [
        0.0036009999457746744,
        0.0036009999457746744
      ],
      "type": "VEC2"
    },
    {
      "bufferView": 0,
      "byteOffset": 74016,
      "componentType": 5125,
      "count": 18840,
      "type": "SCALAR"
    },
    {
      "bufferView": 2,
      "byteOffset": 378168,
      "componentType": 5126,
      "count": 10368,
      "max": [
        33.912986755371094,
        15.293924331665039,
        2.8956000804901123
      ],
      "min": [
        -27.047012329101563,
        -29.206876754760742,
        -0.0
      ],
      "type": "VEC3"
    },
    {
      "bufferView": 2,
      "byteOffset": 502584,
      "componentType": 5126,
      "count": 10368,
      "max": [
        1.0,
        1.0,
        0.0
      ],
      "min": [
        -1.0,
        -1.0,
        -1.0
      ],
      "type": "VEC3"
    },
    {
      "bufferView": 1,
      "byteOffset": 126056,
      "componentType": 5126,
      "count": 10368,
      "max": [
        0.9942629933357239,
        0.9957200288772583
      ],
      "min": [
        0.0036009999457746744,
        0.0036009999457746744
      ],
      "type": "VEC2"
    },
    {
      "bufferView": 0,
      "byteOffset": 149376,
      "componentType": 5125,
      "count": 22734,
      "type": "SCALAR"
    },
    {
      "bufferView": 2,
      "byteOffset": 627000,
      "componentType": 5126,
      "count": 1488,
      "max": [
        22.797325134277344,
        14.836713790893555,
        2.7432000637054443
      ],
      "min": [
        -15.931323051452637,
        -6.804084777832031,
        -0.0
      ],
      "type": "VEC3"
    },
    {
      "bufferView": 2,
      "byteOffset": 644856,
      "componentType": 5126,
      "count": 1488,
      "max": [
        1.0,
        1.0,
        1.0
      ],
      "min": [
        -1.0,
        -1.0,
        -1.0
      ],
      "type": "VEC3"
    },
    {
      "bufferView": 1,
      "byteOffset": 209000,
      "componentType": 5126,
      "count": 1488,
      "max": [
        0.9963840246200562,
        0.9963420033454895
      ],
      "min": [
        0.003616000059992075,
        0.0036140000447630882
      ],
      "type": "VEC2"
    },
    {
      "bufferView": 0,
      "byteOffset": 240312,
      "componentType": 5125,
      "count": 2508,
      "type": "SCALAR"
    }
  ],
  "asset": {
    "extras": {
      "author": "jimbogies (https://sketchfab.com/jimbogies)",
      "license": "SKETCHFAB Standard (https://sketchfab.com/licenses)",
      "source": "https://sketchfab.com/3d-models/vr-gallery-experiment-e555939dda684655af4cd787c5f97887",
      "title": "VR Gallery Experiment"
    },
    "generator": "Sketchfab-15.16.0",
    "version": "2.0"
  },
  "bufferViews": [
    {
      "buffer": 0,
      "byteLength": 250344,
      "name": "floatBufferViews",
      "target": 34963
    },
    {
      "buffer": 0,
      "byteLength": 220904,
      "byteOffset": 250344,
      "byteStride": 8,
      "name": "floatBufferViews",
      "target": 34962
    },
    {
      "buffer": 0,
      "byteLength": 662712,
      "byteOffset": 471248,
      "byteStride": 12,
      "name": "floatBufferViews",
      "target": 34962
    }
  ],
  "buffers": [
    {
      "byteLength": 1133960,
      "uri": "scene.bin"
    }
  ],
  "extensionsUsed": [
    "KHR_materials_emissive_strength"
  ],
  "images": [
    {
      "uri": "textures/material_baseColor.jpeg"
    },
    {
      "uri": "textures/material_metallicRoughness.png"
    },
    {
      "uri": "textures/material_emissive.jpeg"
    }
  ],
  "materials": [
    {
      "doubleSided": true,
      "emissiveFactor": [
        1.0,
        1.0,
        1.0
      ],
      "emissiveTexture": {
        "index": 2
      },
      "extensions": {
        "KHR_materials_emissive_strength": {
          "emissiveStrength": 1.6914337262742132
        }
      },
      "name": "material",
      "pbrMetallicRoughness": {
        "baseColorTexture": {
          "index": 0
        },
        "metallicFactor": 0.43123940949153367,
        "metallicRoughnessTexture": {
          "index": 1
        }
      }
    }
  ],
  "meshes": [
    {
      "name": "Object_0",
      "primitives": [
        {
          "attributes": {
            "NORMAL": 1,
            "POSITION": 0,
            "TEXCOORD_0": 2
          },
          "indices": 3,
          "material": 0,
          "mode": 4
        }
      ]
    },
    {
      "name": "Object_1",
      "primitives": [
        {
          "attributes": {
            "NORMAL": 5,
            "POSITION": 4,
            "TEXCOORD_0": 6
          },
          "indices": 7,
          "material": 0,
          "mode": 4
        }
      ]
    },
    {
      "name": "Object_2",
      "primitives": [
        {
          "attributes": {
            "NORMAL": 9,
            "POSITION": 8,
            "TEXCOORD_0": 10
          },
          "indices": 11,
          "material": 0,
          "mode": 4
        }
      ]
    },
    {
      "name": "Object_3",
      "primitives": [
        {
          "attributes": {
            "NORMAL": 13,
            "POSITION": 12,
            "TEXCOORD_0": 14
          },
          "indices": 15,
          "material": 0,
          "mode": 4
        }
      ]
    }
  ],
  "nodes": [
    {
      "children": [
        1
      ],
      "matrix": [
        1.0,
        0.0,
        0.0,
        0.0,
        0.0,
        2.220446049250313e-16,
        -1.0,
        0.0,
        0.0,
        1.0,
        2.220446049250313e-16,
        0.0,
        0.0,
        0.0,
        0.0,
        1.0
      ],
      "name": "Sketchfab_model"
    },
    {
      "children": [
        2,
        3,
        4,
        5
      ],
      "name": "VR.obj.cleaner.materialmerger.gles"
    },
    {
      "mesh": 0,
      "name": "Object_2"
    },
    {
      "mesh": 1,
      "name": "Object_3"
    },
    {
      "mesh": 2,
      "name": "Object_4"
    },
    {
      "mesh": 3,
      "name": "Object_5"
    }
  ],
  "samplers": [
    {
      "magFilter": 9729,
      "minFilter": 9987,
      "wrapS": 10497,
      "wrapT": 10497
    }
  ],
  "scene": 0,
  "scenes": [
    {
      "name": "Sketchfab_Scene",
      "nodes": [
        0
      ]
    }
  ],
  "textures": [
    {
      "sampler": 0,
      "source": 0
    },
    {
      "sampler": 0,
      "source": 1
    },
    {
      "sampler": 0,
      "source": 2
    }
  ]
}
